<svg width="14" height="15" viewBox="0 0 14 15" fill="none" xmlns="http://www.w3.org/2000/svg">
<path d="M5.10321 6.1087V10.8913C5.10321 11.0499 5.16521 11.2019 5.27557 11.314C5.38593 11.4261 5.53561 11.4891 5.69168 11.4891C5.84776 11.4891 5.99744 11.4261 6.1078 11.314C6.21816 11.2019 6.28016 11.0499 6.28016 10.8913V6.1087C6.28016 5.95014 6.21816 5.79808 6.1078 5.68597C5.99744 5.57385 5.84776 5.51087 5.69168 5.51087C5.53561 5.51087 5.38593 5.57385 5.27557 5.68597C5.16521 5.79808 5.10321 5.95014 5.10321 6.1087Z" fill="black"/>
<path d="M8.04559 5.51087C8.20167 5.51087 8.35135 5.57385 8.46171 5.68597C8.57207 5.79808 8.63407 5.95014 8.63407 6.1087V10.8913C8.63407 11.0499 8.57207 11.2019 8.46171 11.314C8.35135 11.4261 8.20167 11.4891 8.04559 11.4891C7.88952 11.4891 7.73984 11.4261 7.62948 11.314C7.51912 11.2019 7.45712 11.0499 7.45712 10.8913V6.1087C7.45712 5.95014 7.51912 5.79808 7.62948 5.68597C7.73984 5.57385 7.88952 5.51087 8.04559 5.51087Z" fill="black"/>
<path d="M9.22252 2.52174H12.7534C12.9094 2.52174 13.0591 2.58472 13.1695 2.69684C13.2798 2.80895 13.3418 2.96101 13.3418 3.11956C13.3418 3.27812 13.2798 3.43018 13.1695 3.54229C13.0591 3.65441 12.9094 3.71739 12.7534 3.71739H12.1025L11.2174 11.8191C11.1375 12.5503 10.7949 13.2259 10.2553 13.7165C9.71568 14.2071 9.01691 14.4783 8.29274 14.4783H5.44454C4.72036 14.4783 4.02159 14.2071 3.48197 13.7165C2.94235 13.2259 2.59978 12.5503 2.51983 11.8191L1.63359 3.71739H0.983919C0.827846 3.71739 0.678166 3.65441 0.567806 3.54229C0.457446 3.43018 0.395447 3.27812 0.395447 3.11956C0.395447 2.96101 0.457446 2.80895 0.567806 2.69684C0.678166 2.58472 0.827846 2.52174 0.983919 2.52174H4.51475C4.51475 1.88752 4.76275 1.27929 5.20419 0.830831C5.64563 0.382374 6.24435 0.130434 6.86864 0.130434C7.49293 0.130434 8.09165 0.382374 8.53309 0.830831C8.97453 1.27929 9.22252 1.88752 9.22252 2.52174ZM6.86864 1.32609C6.55649 1.32609 6.25713 1.45206 6.03641 1.67628C5.81569 1.90051 5.69169 2.20463 5.69169 2.52174H8.04558C8.04558 2.20463 7.92158 1.90051 7.70086 1.67628C7.48014 1.45206 7.18078 1.32609 6.86864 1.32609ZM2.81877 3.71739L3.68971 11.6876C3.73779 12.1262 3.94338 12.5315 4.26714 12.8257C4.5909 13.12 5.0101 13.2827 5.44454 13.2826H8.29274C8.72697 13.2824 9.14588 13.1196 9.4694 12.8253C9.79291 12.5311 9.99833 12.126 10.0464 11.6876L10.9197 3.71739H2.81995H2.81877Z" fill="black"/>
</svg>
